<?xml version="1.0" encoding="UTF-8" standalone="no"?>
<svg
   xmlns:dc="http://purl.org/dc/elements/1.1/"
   xmlns:cc="http://creativecommons.org/ns#"
   xmlns:rdf="http://www.w3.org/1999/02/22-rdf-syntax-ns#"
   xmlns:svg="http://www.w3.org/2000/svg"
   xmlns="http://www.w3.org/2000/svg"
   id="svg8"
   version="1.1"
   viewBox="0 0 270.93333 270.93334"
   height="1024"
   width="1024">
  <defs
     id="defs2" />
  <metadata
     id="metadata5">
    <rdf:RDF>
      <cc:Work
         rdf:about="">
        <dc:format>image/svg+xml</dc:format>
        <dc:type
           rdf:resource="http://purl.org/dc/dcmitype/StillImage" />
        <dc:title></dc:title>
      </cc:Work>
    </rdf:RDF>
  </metadata>
  <g
     id="layer1">
    <path
       id="path1526"
       d="m 213.40409,189.54429 c 0,-0.36746 0.15574,-0.82676 0.34609,-1.0207 0.19034,-0.19393 1.16756,-1.93931 2.17157,-3.87861 2.73018,-5.27348 6.12488,-11.71484 7.81362,-14.82618 l 1.49992,-2.76347 -2.26263,-4.28857 c -1.24446,-2.3587 -3.51234,-6.71038 -5.03973,-9.67037 -1.5274,-2.96 -2.87895,-5.46533 -3.00344,-5.5674 -0.12443,-0.10213 -0.76937,-1.27123 -1.43305,-2.59811 -0.6637,-1.32691 -2.45753,-4.75085 -3.98629,-7.60878 -1.52876,-2.85793 -3.32404,-6.28188 -3.98952,-7.60878 -0.66548,-1.32689 -1.31772,-2.49605 -1.44944,-2.59811 -0.13172,-0.10213 -0.78209,-1.40027 -1.4453,-2.88491 -0.6632,-1.48462 -1.26659,-2.63853 -1.34087,-2.56425 -0.0742,0.0744 0.10591,1.37248 0.40032,2.88489 0.42238,2.1695 0.5382,6.76115 0.54883,21.75681 0.007,10.45381 0.11994,19.43124 0.25011,19.94983 l 0.23665,0.94288 h -6.67783 c -7.77338,0 -7.12202,0.43978 -7.13049,-4.81435 l -0.006,-3.14415 -2.31976,2.25771 c -2.94359,2.86487 -5.87591,4.7703 -8.87178,5.76491 -1.29569,0.43016 -2.52282,0.90933 -2.72696,1.06483 -2.01772,1.53694 -20.59792,1.52966 -22.64074,-0.008 -0.20414,-0.15374 -1.23748,-0.56208 -2.29632,-0.90742 -2.15656,-0.70337 -5.97922,-3.04734 -7.83731,-4.80566 -3.03963,-2.8764 -4.96877,-7.16475 -5.04203,-11.20805 -0.023,-1.27186 -0.11096,-2.24597 -0.1954,-2.16469 -0.0844,0.0812 -0.45344,0.99948 -0.82002,2.04044 -1.40118,3.97879 -6.97168,10.66592 -10.70431,12.85005 -0.92615,0.54194 -1.88223,1.18264 -2.12461,1.42378 -0.64897,0.64568 -7.45083,3.07333 -9.98703,3.56449 -3.04113,0.58892 -11.29087,0.48976 -14.439976,-0.17359 -5.746888,-1.21055 -12.169753,-4.45803 -15.178152,-7.67426 l -1.709621,-1.82772 -0.0041,2.48943 c -0.0022,1.36918 -0.107609,3.11576 -0.234143,3.88127 l -0.230056,1.39186 h -7.04371 -7.043711 l 0.198938,-0.83511 c 0.109419,-0.45932 0.317761,-6.38859 0.462991,-13.17618 l 0.264055,-12.34106 H 41.371497 14.359715 l 0.241403,2.05397 c 0.132776,1.12969 0.391495,2.3406 0.574936,2.69091 0.183442,0.35031 0.623707,1.47204 0.978368,2.49274 1.751565,5.04088 6.606855,9.42696 11.854828,10.70915 6.685471,1.63343 6.552588,1.62624 11.531723,0.62462 6.100613,-1.22724 9.924036,-3.72449 11.954014,-7.80776 l 1.014866,-2.04138 7.023019,-0.10128 c 3.86266,-0.0557 7.17414,0.0499 7.35885,0.23462 0.200334,0.20034 0.181776,0.61554 -0.046,1.02911 -0.21001,0.38132 -0.659046,1.61192 -0.997864,2.73468 -0.338816,1.12275 -1.044955,2.70946 -1.569204,3.52602 -1.323607,2.06161 -4.776566,5.6193 -6.36555,6.5586 -0.728505,0.43064 -1.90913,1.16478 -2.623613,1.63143 -1.818479,1.18767 -8.781968,3.43583 -12.184084,3.93363 -3.74471,0.54791 -12.86289,0.52776 -16.492555,-0.0365 -3.898137,-0.60596 -9.679165,-2.6013 -12.774866,-4.40928 -2.98791,-1.74504 -7.1873083,-5.71704 -9.0985071,-8.60583 -1.6363499,-2.47373 -3.4144832,-7.01864 -4.18431472,-10.69549 -0.729879,-3.48602 -0.7423455,-11.3428 -0.0239558,-15.09749 0.55418172,-2.89645 3.05328022,-10.20991 3.48885032,-10.20991 0.1316326,0 0.4492174,-0.47416 0.7057459,-1.05369 0.6601531,-1.49139 4.0140551,-5.26871 6.2341104,-7.02114 2.714427,-2.14266 7.316516,-4.42231 10.739613,-5.31989 1.633103,-0.4282 3.637366,-0.95954 4.453917,-1.18075 0.819793,-0.2221 4.808875,-0.41128 8.907835,-0.42247 7.352973,-0.0201 7.463575,-0.008 11.691534,1.22396 6.134593,1.78829 10.679124,4.37825 14.184554,8.08391 1.509489,1.59571 4.744595,6.28447 4.744595,6.87653 0,0.18372 0.346255,1.03582 0.769456,1.89355 0.423196,0.85772 0.993293,2.64514 1.266875,3.97204 0.436704,2.11804 0.500706,-0.4871 0.524304,-21.34169 0.01477,-13.064828 0.02925,-24.046518 0.03218,-24.403758 0.0049,-0.59562 0.590574,-0.64953 7.05734,-0.64953 h 7.052035 v 16.92702 16.927028 l 1.031917,-1.05995 c 5.865974,-6.02528 14.689954,-9.02699 25.13484,-8.55028 3.7927,0.1731 5.05553,0.40284 8.50625,1.54753 4.43697,1.47186 8.25708,3.53704 11.2334,6.07287 2.08057,1.77266 5.68481,6.01487 5.68481,6.69105 0,0.22908 0.14645,0.41651 0.32545,0.41651 0.179,0 0.69882,0.87687 1.15517,1.94858 0.45635,1.07173 1.131,2.61853 1.49922,3.43735 1.08067,2.40304 1.84523,7.36661 1.84523,11.97934 v 4.29266 l 1.21241,-1.70527 c 3.38342,-4.75887 8.79951,-7.51784 17.71674,-9.02501 6.12771,-1.03569 9.19694,-1.23019 19.79096,-1.25414 l 10.3264,-0.0233 -0.23279,-2.13418 c -0.59889,-5.49059 -1.72359,-7.66746 -5.1301,-9.92925 -2.85053,-1.89264 -6.20895,-2.51585 -12.5062,-2.32078 -3.91898,0.12149 -5.43284,0.32191 -6.94839,0.92022 -3.54427,1.39922 -5.80148,3.72697 -6.39762,6.59753 l -0.23124,1.11348 -7.55255,0.10058 -7.55256,0.10059 0.2289,-1.66996 c 0.12583,-0.91848 0.38057,-1.96589 0.56596,-2.3276 0.18538,-0.3617 0.72284,-1.54334 1.19434,-2.62588 2.23392,-5.1289 8.46582,-9.2626 16.67185,-11.05859 0.71448,-0.15637 1.54958,-0.3452 1.8558,-0.41964 5.02217,-1.22072 16.61519,-0.98214 21.70804,0.44672 4.50047,1.26265 7.0188,2.10575 7.24243,2.42464 0.10212,0.14555 0.7475,0.55263 1.43428,0.90464 0.6868,0.35201 1.99302,1.32609 2.90272,2.16462 l 1.654,1.52461 -1.50565,-2.76237 c -0.82811,-1.51929 -1.50799,-2.89081 -1.51085,-3.04782 -0.003,-0.157 3.70619,-0.24051 8.24237,-0.18558 l 8.2476,0.0999 0.46569,0.9279 c 0.25614,0.51034 0.81009,1.6795 1.23102,2.59812 0.42091,0.91861 1.42931,2.92287 2.24085,4.45391 0.81155,1.53104 1.92064,3.78583 2.46463,5.01067 0.544,1.22482 1.1801,2.47748 1.41357,2.78369 0.23347,0.3062 0.89689,1.64238 1.47424,2.96928 0.57736,1.32689 1.16662,2.49605 1.30947,2.59812 0.14283,0.10212 0.73751,1.27122 1.32147,2.59811 0.58398,1.3269 1.16856,2.49606 1.29907,2.59813 0.13046,0.10212 0.70967,1.27122 1.28704,2.59811 0.57735,1.3269 1.25388,2.66308 1.5034,2.96929 0.24951,0.3062 0.90661,1.64238 1.46023,2.96928 0.55362,1.32689 1.13605,2.49604 1.2943,2.59811 0.15825,0.10213 0.74068,1.27123 1.2943,2.59812 0.55362,1.3269 1.20818,2.66307 1.45459,2.96928 0.2464,0.3062 0.65725,1.04571 0.91301,1.64335 0.45182,1.05579 0.79123,0.43247 11.97425,-21.99123 l 11.50925,-23.07782 h 7.39782 c 4.47516,0 7.39784,0.14066 7.39784,0.35605 0,0.19583 -0.98798,2.24184 -2.19551,4.54671 -1.20754,2.30486 -4.58972,8.90952 -7.51599,14.67702 -2.92626,5.76749 -5.52522,10.86166 -5.77547,11.32037 -0.25024,0.4587 -0.80037,1.58561 -1.22249,2.50423 -0.42213,0.91862 -2.66742,5.34471 -4.98956,9.83574 -5.82919,11.27374 -9.10725,17.86314 -9.10725,18.30696 0,0.20612 -0.1285,0.43043 -0.28537,0.49846 -0.15696,0.068 -1.51595,2.54554 -3.01998,5.50555 -1.50402,2.96 -3.79496,7.46959 -5.09098,10.02131 -1.29601,2.55173 -2.35885,4.84828 -2.36185,5.10345 -0.004,0.35659 -1.85179,0.46395 -7.98539,0.46395 -7.43695,0 -7.97993,-0.0455 -7.97993,-0.66809 z m -39.7141,-30.242 c 1.3269,-0.32626 3.00782,-0.84319 3.73537,-1.14874 2.4427,-1.02583 5.31896,-3.52423 7.09243,-6.16068 1.84526,-2.74317 2.62303,-5.38017 3.1046,-10.52594 l 0.23734,-2.53602 -9.5902,0.23709 c -14.31767,0.35397 -17.68198,0.78909 -21.67131,2.80289 -2.54167,1.28304 -3.97499,3.08065 -4.50673,5.65217 -0.91473,4.42376 1.41905,8.86759 5.68505,10.82505 1.14828,0.5269 2.40094,0.96055 2.78369,0.96368 0.38275,0.003 0.94644,0.17277 1.25265,0.37699 0.81899,0.54622 9.04785,0.20917 11.87711,-0.48649 z m -64.03319,-0.63643 c 9.72331,-2.4868 15.35405,-12.22102 14.24704,-24.62974 -0.16123,-1.80728 -0.43706,-3.47751 -0.61296,-3.7116 -0.1759,-0.23408 -0.53489,-1.17722 -0.79776,-2.09584 -1.6551,-5.78389 -6.67915,-10.63181 -12.95663,-12.50244 -2.81944,-0.84016 -9.45641,-0.85556 -12.525176,-0.029 -4.476534,1.20566 -8.828145,4.53273 -11.257433,8.60702 -1.95916,3.28579 -3.358815,8.5836 -3.364498,12.73487 -0.0048,3.52528 1.172049,9.21362 2.395862,11.58022 2.658547,5.14105 7.295199,8.98468 12.299039,10.19547 3.319006,0.80311 9.118716,0.73443 12.572516,-0.14891 z M 53.696716,129.23373 c -0.233292,-2.57282 -2.347868,-7.28599 -4.089305,-9.11464 -3.378559,-3.54775 -8.166024,-5.25642 -14.697756,-5.24572 -5.319093,0.008 -8.374455,0.70943 -11.642895,2.67012 -3.565933,2.13916 -5.758119,4.89147 -7.276174,9.1353 -1.896277,5.30117 -4.22528,4.70476 18.372046,4.70476 h 19.529026 z"
       style="fill:#00ff7f;stroke-width:0.371159;fill-opacity:1" />
  </g>
</svg>
