<?xml version="1.0" encoding="UTF-8" standalone="no"?>
<svg
   xmlns:dc="http://purl.org/dc/elements/1.1/"
   xmlns:cc="http://creativecommons.org/ns#"
   xmlns:rdf="http://www.w3.org/1999/02/22-rdf-syntax-ns#"
   xmlns:svg="http://www.w3.org/2000/svg"
   xmlns="http://www.w3.org/2000/svg"
   id="svg8"
   version="1.1"
   viewBox="0 0 270.93333 270.93334"
   height="1024"
   width="1024">
  <defs
     id="defs2" />
  <metadata
     id="metadata5">
    <rdf:RDF>
      <cc:Work
         rdf:about="">
        <dc:format>image/svg+xml</dc:format>
        <dc:type
           rdf:resource="http://purl.org/dc/dcmitype/StillImage" />
        <dc:title></dc:title>
      </cc:Work>
    </rdf:RDF>
  </metadata>
  <g
     id="layer1">
    <path
       id="path899"
       d="m 124.65492,269.58091 c -3.39942,-0.21563 -10.75388,-1.25622 -15.29079,-2.16352 -5.66439,-1.13277 -7.71308,-1.64592 -14.703906,-3.68305 -7.327127,-2.13513 -18.592611,-7.05873 -26.743029,-11.68811 -3.483748,-1.97873 -13.178904,-8.27165 -13.641952,-8.85469 -0.107823,-0.13574 -1.695777,-1.41281 -3.528785,-2.83785 -6.56881,-5.10687 -15.823328,-14.19534 -17.936797,-17.61501 -1.402204,-2.26882 -2.111233,-5.6293 -1.636418,-7.75592 0.898702,-4.02512 2.490957,-5.74948 11.339383,-12.28015 15.590737,-11.50689 16.557308,-12.07958 20.388059,-12.07958 4.220223,0 6.074381,1.26455 12.351226,8.42352 13.459711,15.3513 29.462909,25.81539 47.246519,30.89334 2.33292,0.66613 6.42511,1.51572 10.7824,2.23855 7.69286,1.27618 23.38401,1.18545 31.73051,-0.18346 18.71278,-3.06907 35.89236,-11.30945 49.03945,-23.52234 1.50955,-1.40228 3.78732,-3.08084 5.06175,-3.73015 2.02583,-1.03216 2.7268,-1.18058 5.57606,-1.18058 2.59249,0 3.69645,0.1935 5.39843,0.9462 2.38193,1.05339 5.36786,3.60891 6.72685,5.75716 1.10942,1.75372 2.13446,5.12954 2.13446,7.02949 0,1.93939 -1.26569,5.49017 -2.68452,7.53125 -1.0746,1.54587 -8.76518,9.2675 -12.41085,12.46094 -11.27335,9.87501 -27.09921,19.04844 -42.72278,24.7642 -1.73328,0.63411 -3.94539,1.38792 -4.91579,1.67513 -15.24531,4.51213 -23.07427,5.71701 -38.22853,5.88335 -6.03813,0.0662 -12.03707,0.0534 -13.33095,-0.0287 z m 125.46791,-85.61282 c -2.38371,-0.72318 -3.75694,-1.2673 -7.64571,-3.02954 -1.18605,-0.53747 -3.03868,-1.37728 -4.11691,-1.86624 -1.07825,-0.48895 -4.16593,-1.82837 -6.86153,-2.97649 -5.47883,-2.33356 -7.43064,-3.42397 -9.34643,-5.22157 -3.56445,-3.3445 -3.91493,-7.12188 -1.35081,-14.55884 3.12027,-9.05006 4.0276,-12.56322 5.67064,-21.9569 1.20342,-6.88029 1.21172,-22.29829 0.0156,-28.8184 -1.73977,-9.482922 -4.07437,-16.654318 -8.12261,-24.950998 -6.15808,-12.620685 -11.65218,-20.326188 -21.16775,-29.687869 -9.9593,-9.798249 -22.27626,-17.212263 -36.27425,-21.834782 -4.79912,-1.584793 -5.8763,-2.1014 -7.7594,-3.721404 -3.27767,-2.819738 -4.87643,-7.864156 -3.99798,-12.61445 0.57469,-3.1076437 1.15495,-4.3918987 3.03027,-6.7067907 1.6744,-2.066856 3.62786,-3.3387871 6.3856,-4.1577439 2.64118,-0.7843498 4.07831,-0.7808926 7.57859,0.018227 20.06669,4.5812459 40.70438,14.9260546 56.90874,28.5259826 8.63882,7.250351 19.42868,19.357926 25.3728,28.471447 11.78896,18.07482 18.43498,35.938659 21.73479,58.421011 1.00234,6.82906 1.01097,26.97785 0.0148,33.91554 -1.20173,8.36725 -2.3577,13.82348 -4.40686,20.80045 -1.65868,5.64748 -2.59616,7.57321 -4.69244,9.63904 -2.95802,2.91504 -6.50974,3.66313 -10.96883,2.31033 z M 14.955753,183.55449 C 10.810144,182.50865 7.3594151,179.2074 5.8014014,174.79673 5.0054793,172.5435 2.6785171,163.23249 1.9665523,159.4521 0.1828179,149.98089 -0.00134134,147.61259 -4.6749659e-6,134.16247 0.00117196,122.48611 0.09906065,120.4024 0.88167817,115.39781 3.3728679,99.467438 6.8497955,88.102843 13.35172,74.638539 18.021071,64.969171 26.0718,52.729928 32.485088,45.550752 34.531356,43.260113 44.975573,32.815457 47.082775,30.952466 50.558111,27.87987 64.689959,17.712552 65.485305,17.712552 c 0.09683,0 0.922411,-0.472534 1.83463,-1.050077 2.671969,-1.69167 13.494177,-6.9718387 17.538114,-8.5568557 15.118568,-5.9257047 25.741311,-8.06783487 30.305691,-6.1113058 2.07576,0.889771 4.44841,3.5712668 5.41647,6.1215328 1.16217,3.0616207 3.25767,20.9853797 3.27643,28.0248117 0.0118,4.72815 -0.0785,5.466287 -0.85327,6.914848 -1.59519,2.982482 -4.67593,4.779587 -9.9417,5.799375 -11.09465,2.148629 -17.575654,4.040724 -25.574731,7.466399 -21.104911,9.038358 -35.924919,23.129714 -47.227898,44.90587 -10.16925,19.59193 -13.214955,41.82251 -8.669515,63.27868 1.95304,9.21908 -0.08773,14.55066 -6.842362,17.87595 -2.77499,1.36612 -7.012822,1.87369 -9.791411,1.17271 z m 73.038995,-23.10352 c -8.884844,-2.42201 -15.507725,-8.47279 -18.974495,-17.33542 -1.571705,-4.01799 -1.776885,-11.80322 -0.432288,-16.40273 1.58744,-5.43023 5.872464,-11.53481 10.174229,-14.49449 6.455812,-4.44172 14.275937,-6.0751 21.505896,-4.49192 3.6672,0.80301 9.33528,3.59157 11.93952,5.87392 3.96165,3.47201 6.73827,7.75766 8.40554,12.97374 1.22964,3.84698 1.22964,11.32984 0,15.17682 -2.54796,7.97133 -8.04725,14.23841 -15.19052,17.31136 -5.00304,2.15224 -12.450117,2.74565 -17.427882,1.38872 z m 81.554162,0.0227 c -8.25586,-2.324 -14.66467,-7.66077 -17.96013,-14.95578 -1.93532,-4.28415 -2.23136,-5.83694 -2.20225,-11.55142 0.0255,-5.00991 0.12373,-5.74599 1.12453,-8.42987 2.29337,-6.15017 6.05292,-10.91264 11.22766,-14.22289 12.17655,-7.78925 28.70285,-4.31436 36.75783,7.72885 10.07219,15.05915 3.26755,34.96574 -13.97258,40.87604 -4.04036,1.38512 -11.09723,1.6467 -14.97506,0.5551 z"
       style="fill:#00ff7f;stroke-width:0.392087;fill-opacity:1" />
  </g>
</svg>
